<?xml version="1.0" encoding="utf-8"?>
<!-- Generator: Adobe Illustrator 14.0.0, SVG Export Plug-In . SVG Version: 6.00 Build 43363)  -->
<!DOCTYPE svg PUBLIC "-//W3C//DTD SVG 1.1//EN" "http://www.w3.org/Graphics/SVG/1.1/DTD/svg11.dtd">
<svg version="1.1" id="Layer_1" xmlns="http://www.w3.org/2000/svg" xmlns:xlink="http://www.w3.org/1999/xlink" x="0px" y="0px"
	 width="512px" height="512px" viewBox="0 0 512 512" enable-background="new 0 0 512 512" xml:space="preserve" fill="#333">
<rect x="17.5" y="293.5" width="487" height="18"/>
<rect x="483.5" y="169.5" width="21" height="124"/>
<rect x="250.5" y="169.5" width="21" height="124"/>
<rect x="17.5" y="169.5" width="21" height="124"/>
<rect x="60.5" y="216" width="10.5" height="78"/>
<rect x="250.5" y="216.5" width="10.5" height="78"/>
<rect x="207.5" y="216" width="10.5" height="78"/>
<rect x="158.5" y="216" width="10.5" height="78"/>
<rect x="109.5" y="216" width="10.5" height="78"/>
<rect x="305" y="216" width="10.5" height="78"/>
<rect x="452" y="216" width="10.5" height="78"/>
<rect x="403" y="216" width="10.5" height="78"/>
<rect x="354" y="216" width="10.5" height="78"/>
<line fill="none" stroke="#333" stroke-width="10" x1="23.5" y1="174.5" x2="494" y2="174.5"/>
</svg>
